<?xml version="1.0" encoding="UTF-8" standalone="no"?>
<!-- Created with Inkscape (http://www.inkscape.org/) -->

<svg
   width="70mm"
   height="28.875999mm"
   viewBox="0 0 70 28.875999"
   version="1.1"
   id="svg5"
   inkscape:version="1.1.1 (3bf5ae0d25, 2021-09-20)"
   sodipodi:docname="jcm logo.svg"
   xmlns:inkscape="http://www.inkscape.org/namespaces/inkscape"
   xmlns:sodipodi="http://sodipodi.sourceforge.net/DTD/sodipodi-0.dtd"
   xmlns="http://www.w3.org/2000/svg"
   xmlns:svg="http://www.w3.org/2000/svg">
  <sodipodi:namedview
     id="namedview7"
     pagecolor="#ffffff"
     bordercolor="#666666"
     borderopacity="1.0"
     inkscape:pageshadow="2"
     inkscape:pageopacity="0.0"
     inkscape:pagecheckerboard="0"
     inkscape:document-units="mm"
     showgrid="false"
     inkscape:zoom="2.0762433"
     inkscape:cx="317.15937"
     inkscape:cy="112.46274"
     inkscape:window-width="1920"
     inkscape:window-height="1013"
     inkscape:window-x="-9"
     inkscape:window-y="-9"
     inkscape:window-maximized="1"
     inkscape:current-layer="layer1"
     showguides="true"
     inkscape:guide-bbox="true" />
  <defs
     id="defs2" />
  <g
     inkscape:label="Camada 1"
     inkscape:groupmode="layer"
     id="layer1">
    <g
       id="g33"
       transform="matrix(0.1022201,0,0,0.1022201,-4.9814104,-16.076963)">
      <path
         d="m 48.7322,240.1892 71.4696,-74.2186 56.3516,59.1006 -127.8212,130.5702 z"
         style="fill:#9b9d9f;fill-rule:evenodd"
         id="path9" />
      <path
         d="m 117.4528,311.6604 -60.4751,57.7245 68.7221,70.0967 119.2173,-1.3091 z"
         style="fill:#e30016;fill-rule:evenodd;stroke:#e30016;stroke-width:0.5669;stroke-linecap:butt;stroke-linejoin:miter;stroke-dasharray:none"
         id="path11" />
      <path
         d="m 200.9485,373.5116 131.2575,-129.883 2.0617,48.1046 -81.0911,79.0293 8.9343,9.6216 72.1568,-68.7222 v 46.7317 l -73.5313,73.5313 z"
         style="fill:#d9dadb;fill-rule:evenodd"
         id="path13" />
      <path
         d="m 186.7079,158.2752 -51.7232,0.5907 131.591,127.3708 58.7562,-56.0088 -75.2908,-72.95 -45.5285,0.3163 80.488,76.7432 -9.3005,9.5873 z"
         style="fill:#d9dadb;fill-rule:evenodd"
         id="path15" />
      <path
         d="m 409.8336,335.2607 c 0,6.0898 -0.606,11.5782 -1.818,16.4643 -1.25,4.8502 -3.2954,9.0289 -6.2494,12.4279 -2.916,3.4341 -6.7421,6.0541 -11.4768,7.8602 -4.7341,1.8061 -10.6048,2.6909 -17.5742,2.6909 -2.1967,0 -4.3934,-0.1416 -6.5901,-0.4599 -2.1974,-0.319 -4.2047,-0.7081 -5.9847,-1.2038 -1.8181,-0.4607 -3.4087,-0.9921 -4.7341,-1.5586 -1.326,-0.5308 -2.2354,-1.0265 -2.6513,-1.4871 -0.4547,-0.4599 -0.8334,-0.9206 -1.1368,-1.4163 -0.3026,-0.4599 -0.5299,-1.0972 -0.7573,-1.9119 -0.2273,-0.7789 -0.3786,-1.7703 -0.4547,-2.9741 -0.0753,-1.1681 -0.114,-2.6551 -0.114,-4.4612 0,-2.3368 0.0387,-4.3554 0.152,-5.984 0.1141,-1.6287 0.3027,-2.9034 0.568,-3.8239 0.2654,-0.9556 0.6441,-1.5929 1.098,-1.9828 0.4935,-0.3891 1.0995,-0.5665 1.8568,-0.5665 0.6433,0 1.4393,0.2125 2.31,0.6731 0.9086,0.4599 1.8933,0.9556 3.03,1.4513 1.0987,0.4957 2.3868,0.9563 3.8634,1.4163 1.4774,0.4606 3.2193,0.7081 5.2274,0.7081 2.0066,0 3.7494,-0.2475 5.3028,-0.779 1.5146,-0.5307 2.7639,-1.4162 3.7486,-2.6908 1.0234,-1.2747 1.7807,-3.0099 2.2734,-5.1694 0.5308,-2.1243 0.7954,-4.886 0.7954,-8.285 v -92.3776 c 0,-0.6731 0.2273,-1.2746 0.72,-1.8061 0.492,-0.5315 1.2493,-0.9563 2.348,-1.3104 1.0607,-0.3183 2.5754,-0.6015 4.4694,-0.7789 1.9313,-0.1767 4.3173,-0.2475 7.1208,-0.2475 2.8027,0 5.1506,0.0708 7.0067,0.2475 1.856,0.1774 3.3334,0.4606 4.4694,0.7789 1.1747,0.3541 1.9693,0.7789 2.4628,1.3104 0.4919,0.5315 0.7185,1.133 0.7185,1.8061 z m 130.4196,17.0308 c 0,1.7345 -0.0373,3.2216 -0.1513,4.4254 -0.1133,1.2038 -0.3034,2.266 -0.5307,3.1165 -0.1886,0.8847 -0.492,1.6287 -0.8714,2.266 -0.3787,0.6015 -0.9467,1.3096 -1.78,2.0886 -0.7954,0.7789 -2.386,1.8061 -4.696,3.0449 -2.3487,1.2038 -5.1894,2.4076 -8.5609,3.5406 -3.3706,1.098 -7.196,2.0543 -11.5141,2.7975 -4.3181,0.7439 -9.0141,1.133 -14.0522,1.133 -9.8101,0 -18.6729,-1.4162 -26.589,-4.2488 -7.9161,-2.8325 -14.6582,-7.0812 -20.1883,-12.7112 -5.5673,-5.6299 -9.8094,-12.6404 -12.7641,-21.1029 -2.954,-8.4267 -4.4314,-18.2346 -4.4314,-29.4229 0,-11.4016 1.6287,-21.5278 4.8861,-30.3801 3.2574,-8.8516 7.802,-16.2869 13.6347,-22.306 5.8343,-6.0198 12.8402,-10.5518 21.0224,-13.6675 8.1427,-3.1158 17.1575,-4.6737 27.005,-4.6737 3.9774,0 7.8028,0.3183 11.5148,0.9556 3.7121,0.6023 7.1208,1.4163 10.2641,2.4434 3.1441,0.9914 5.9468,2.1602 8.4848,3.4698 2.5001,1.3455 4.2794,2.4785 5.264,3.399 0.9847,0.9564 1.6667,1.7353 2.0454,2.3369 0.3787,0.6373 0.6828,1.4162 0.8714,2.3726 0.2273,0.9913 0.4174,2.1243 0.5307,3.4347 0.114,1.3097 0.1513,2.9033 0.1513,4.8503 0,2.0536 -0.076,3.8239 -0.2273,5.2759 -0.1514,1.4513 -0.416,2.6201 -0.7574,3.5056 -0.3786,0.8848 -0.8333,1.5579 -1.326,1.947 -0.53,0.4249 -1.136,0.6373 -1.78,0.6373 -1.0987,0 -2.4993,-0.6015 -4.2041,-1.8053 -1.7039,-1.2039 -3.9006,-2.5493 -6.5907,-4.0371 -2.6894,-1.4871 -5.908,-2.8325 -9.6581,-4.0363 -3.7121,-1.2038 -8.1442,-1.8054 -13.3322,-1.8054 -5.6814,0 -10.7575,1.0973 -15.2269,3.2574 -4.4694,2.1952 -8.2567,5.2759 -11.4008,9.3122 -3.1434,4.0714 -5.5294,8.9582 -7.1581,14.694 -1.6286,5.7001 -2.4247,12.1798 -2.4247,19.3676 0,7.8602 0.8713,14.694 2.6141,20.4656 1.742,5.7358 4.204,10.516 7.4234,14.2333 3.1813,3.718 7.0827,6.5155 11.6281,8.3209 4.5447,1.8411 9.6581,2.7617 15.3395,2.7617 5.1514,0 9.6216,-0.5665 13.4089,-1.6995 3.7494,-1.1331 6.9687,-2.4077 9.6589,-3.7531 2.7266,-1.3812 4.9233,-2.6201 6.6653,-3.718 1.7427,-1.0973 3.068,-1.6638 4.0527,-1.6638 0.7201,0 1.3261,0.1417 1.742,0.4249 0.4547,0.2833 0.8341,0.814 1.1375,1.6637 0.2646,0.8147 0.4919,1.9828 0.6432,3.4706 0.1514,1.5221 0.2274,3.5048 0.2274,6.0191 z m 188.1802,16.5701 c 0,0.6731 -0.1885,1.3104 -0.606,1.8769 -0.4159,0.5307 -1.1732,0.9914 -2.2339,1.3454 -1.0607,0.3183 -2.5001,0.6023 -4.2801,0.8148 -1.78,0.2124 -4.0527,0.3182 -6.7801,0.3182 -2.6886,0 -4.9241,-0.1058 -6.7033,-0.3182 -1.7808,-0.2125 -3.1821,-0.4965 -4.2421,-0.8148 -1.0234,-0.354 -1.7807,-0.8147 -2.1981,-1.3454 -0.454,-0.5665 -0.6813,-1.2038 -0.6813,-1.8769 V 259.5598 h -0.2274 l -41.4745,109.1959 c -0.3034,0.8848 -0.7573,1.6287 -1.4394,2.2303 -0.682,0.6022 -1.5526,1.0622 -2.7266,1.4162 -1.1368,0.319 -2.6134,0.5673 -4.3554,0.6731 -1.7807,0.1066 -3.9394,0.1416 -6.4394,0.1416 -2.5374,0 -4.6588,-0.0708 -6.4388,-0.2474 -1.78,-0.1774 -3.2573,-0.4607 -4.3941,-0.8505 -1.136,-0.3891 -2.0453,-0.8498 -2.7266,-1.3805 -0.6448,-0.5665 -1.0987,-1.2396 -1.3261,-1.9828 L 589.1258,259.5598 h -0.2274 v 109.3018 c 0,0.6731 -0.19,1.3104 -0.606,1.8769 -0.4174,0.5307 -1.1747,0.9914 -2.2734,1.3454 -1.136,0.3183 -2.5754,0.6023 -4.3174,0.8148 -1.7427,0.2124 -3.9766,0.3182 -6.704,0.3182 -2.6894,0 -4.9241,-0.1058 -6.7041,-0.3182 -1.7808,-0.2125 -3.2201,-0.4965 -4.2801,-0.8148 -1.0607,-0.354 -1.818,-0.8147 -2.2347,-1.3454 -0.4167,-0.5665 -0.606,-1.2038 -0.606,-1.8769 V 249.2204 c 0,-3.5406 0.9847,-6.2315 2.992,-8.1076 2.0074,-1.8769 4.6587,-2.7975 8.0294,-2.7975 h 19.0903 c 3.4087,0 6.3627,0.2475 8.7868,0.7789 2.462,0.5308 4.5834,1.3813 6.3641,2.5851 1.742,1.2038 3.2567,2.7967 4.4307,4.7794 1.1747,1.9828 2.2347,4.4262 3.106,7.3295 l 30.9451,79.9854 h 0.4547 l 32.0431,-79.808 c 0.9474,-2.904 2.0073,-5.3467 3.144,-7.3652 1.1733,-1.9828 2.4994,-3.6115 4.0147,-4.8503 1.5147,-1.2396 3.3327,-2.1251 5.3781,-2.6559 2.0833,-0.5314 4.5074,-0.7789 7.2348,-0.7789 h 19.6956 c 2.0073,0 3.712,0.2475 5.1514,0.7432 1.4393,0.4606 2.6513,1.1687 3.56,2.1251 0.9466,0.9205 1.6279,2.0535 2.1214,3.399 0.4919,1.3454 0.7185,2.9033 0.7185,4.6378 z"
         style="fill:#d9dadb;fill-rule:evenodd"
         id="path17" />
      <path
         d="m 556.6854,392.2625 c 0.255,0.0336 0.6627,0.1022 1.2404,0.2207 0.5776,0.1192 1.054,0.1871 1.4274,0.1871 0.5098,0 1.4274,-0.1357 2.7356,-0.4078 2.3107,8.3082 5.5726,18.7743 9.7691,31.3983 l 5.1992,-7.6291 c 6.3716,-9.073 11.6043,-16.9898 15.6988,-23.7692 0.1021,0.0336 0.2213,0.0679 0.3741,0.1022 0.1528,0.0335 0.2721,0.0678 0.3563,0.1013 2.2258,0 3.9081,-0.0678 4.9957,-0.2035 -0.3056,4.5537 -0.527,8.2739 -0.7141,11.1795 -0.1692,2.9227 -0.3392,5.7768 -0.4927,8.5974 -0.1528,2.8198 -0.3735,6.5922 -0.6284,11.3322 -0.1699,3.0926 -0.3056,6.9322 -0.4249,11.4858 -0.0335,0.2713 -0.0506,0.7133 -0.0506,1.3589 0,0.6283 -0.0172,1.0875 -0.0515,1.4102 -0.5091,-0.0342 -1.376,-0.0849 -2.5649,-0.1699 -1.1896,-0.085 -2.1072,-0.1357 -2.7356,-0.1357 -0.5441,0 -1.4274,0.0507 -2.6678,0.1357 -1.2231,0.085 -2.1743,0.1357 -2.8369,0.1699 0.3734,-2.6334 0.6962,-5.5218 0.9854,-8.6652 0.2885,-3.1262 0.5605,-6.4394 0.8154,-9.9219 0.2378,-3.4833 0.5434,-7.4927 0.8662,-11.9957 -8.5795,12.8111 -15.2739,23.0052 -20.0824,30.5828 h -2.5657 l -3.2447,-10.6017 c -0.6455,-2.1408 -1.5802,-5.097 -2.7863,-8.8859 -1.2239,-3.7888 -2.2943,-7.2042 -3.2112,-10.2797 -0.3741,1.2918 -0.8668,2.9734 -1.4952,5.0292 -0.6291,2.0558 -1.2918,4.2815 -1.988,6.6944 -0.7305,2.9562 -1.376,5.4369 -1.9537,7.442 -0.2377,1.0532 -0.527,2.2257 -0.8669,3.4996 -0.3227,1.2575 -0.5776,2.2772 -0.7476,3.0248 -0.2378,1.0704 -0.4413,1.9023 -0.5605,2.48 -0.1357,0.5776 -0.255,1.1218 -0.3571,1.5973 -1.0018,-0.2042 -2.0215,-0.3056 -3.0576,-0.3056 -1.0704,0 -2.1244,0.1014 -3.1605,0.3056 0.1357,-0.8326 0.4421,-1.648 0.9176,-2.4463 0.4927,-1.2232 1.104,-2.9399 1.8516,-5.1313 0.7476,-2.1915 1.3082,-3.8567 1.7159,-4.9614 1.1389,-3.3975 2.4978,-7.7133 4.078,-12.9468 z m 67.4523,26.4027 c 0,-0.17 0.0164,-0.4249 0.0507,-0.7641 0.0343,-0.357 0.0507,-0.6119 0.0507,-0.7476 0.2214,-2.0051 0.3228,-3.2283 0.3228,-3.6875 0,-3.7374 -1.0868,-5.6068 -3.2619,-5.6068 -3.2283,0 -5.6747,3.6025 -7.3227,10.806 z m -10.7888,3.1605 c -0.1364,0.8661 -0.2721,2.1236 -0.3913,3.7717 0,1.0532 0.187,2.26 0.5948,3.6188 0.3906,1.376 0.8669,2.3451 1.4446,2.9056 1.2738,1.3589 3.109,2.0387 5.4876,2.0387 2.8205,0 5.5725,-0.9855 8.2574,-2.9563 l 0.6962,0.612 -2.0386,3.6696 c -3.1433,1.9708 -6.473,2.9562 -9.9734,2.9562 -2.8541,0 -5.2327,-0.357 -7.1185,-1.0704 -1.8866,-0.7133 -3.5175,-2.0215 -4.8935,-3.9245 -1.3596,-2.0222 -2.0387,-4.5029 -2.0387,-7.442 0,-1.4438 0.1528,-3.0755 0.4927,-4.9099 0.5434,-3.0755 1.6309,-5.8447 3.2447,-8.3082 1.6145,-2.4471 3.6875,-4.3665 6.2017,-5.7261 2.515,-1.376 5.3348,-2.0558 8.4953,-2.0558 3.8738,0 6.745,0.9518 8.6138,2.8712 1.8694,1.9202 2.8034,4.5536 2.8034,7.9348 0,1.648 -0.2713,3.6531 -0.8155,6.0146 z m 41.0824,-27.2353 c -0.6283,2.5649 -1.1553,4.7228 -1.5973,6.473 -0.4242,1.7331 -0.8155,3.5004 -1.1718,5.267 h 5.9296 l -0.6291,3.3639 h -5.9125 c -1.2232,5.7769 -2.2086,10.6018 -2.9391,14.4592 -0.1364,0.7477 -0.2206,1.291 -0.2549,1.5967 -0.0507,0.3227 -0.1021,0.8326 -0.1871,1.5631 -0.0678,0.7304 -0.1356,1.2917 -0.1871,1.648 -0.1185,1.3596 -0.1863,2.2429 -0.1863,2.6335 0,2.1072 0.9004,3.1776 2.7356,3.1776 0.5769,0 1.3245,-0.1021 2.2593,-0.3063 0.1356,-0.0336 0.2892,-0.085 0.4755,-0.1528 0.1871,-0.0679 0.3228,-0.1186 0.4249,-0.1528 l -0.4077,2.5313 c -0.3571,0.1193 -0.5606,0.2214 -0.6112,0.3064 -2.7185,0.8326 -4.9279,1.2403 -6.6266,1.2403 -4.8935,0 -7.3399,-2.2772 -7.3399,-6.8472 0,-0.7141 0.1356,-1.903 0.4249,-3.5511 0.3734,-2.1072 1.1046,-5.6068 2.2429,-10.5003 0.1356,-0.8662 0.3734,-2.1065 0.7133,-3.7203 0.357,-1.5974 0.5948,-2.9056 0.6969,-3.9253 h -4.6728 c 0.2042,-0.6112 0.3741,-1.5288 0.4927,-2.7691 l 0.1021,-0.5948 h 4.7064 c 0.17,-0.9005 0.3399,-2.1237 0.527,-3.6867 0.2035,-1.5803 0.3906,-2.9906 0.5941,-4.2645 2.0729,-0.7476 5.3355,-2.1072 9.7699,-4.078 z m 11.7236,34.2688 c 0,1.8866 0.1871,3.1948 0.5606,3.9588 0.3741,0.7648 1.0703,1.1554 2.0729,1.1554 3.3133,0 5.4034,-2.3615 6.2188,-7.0507 0.2885,-1.9366 0.6962,-4.0438 1.2232,-6.3202 -1.2068,0.5098 -2.1236,0.8833 -2.7356,1.121 -0.7305,0.2378 -1.4952,0.4756 -2.2936,0.7477 -0.8154,0.2549 -1.4781,0.5948 -1.9879,0.9854 -1.5803,1.1047 -2.5992,2.9055 -3.0584,5.4026 z m -3.5846,-15.2061 -0.1021,-3.9588 c 1.7502,-1.3931 3.806,-2.4806 6.1845,-3.2447 2.3786,-0.7647 4.6722,-1.1389 6.8808,-1.1389 3.0412,0 5.5897,0.6798 7.6291,2.0558 2.0558,1.3596 3.0748,3.636 3.0748,6.8136 -0.3563,1.5631 -0.6456,3.0241 -0.8155,4.3666 -0.0335,0.2206 -0.2549,1.3588 -0.6798,3.4146 -0.4077,2.0558 -0.8326,4.1459 -1.2739,6.2695 -0.2721,1.8352 -0.442,3.0927 -0.4927,3.7889 0,1.5631 0.3399,2.4978 1.019,2.8377 0.4591,0.1185 0.8669,0.1863 1.2574,0.2378 0.3906,0.0335 0.6456,0.1021 0.7305,0.2035 0.1022,0.1021 0.1528,0.3227 0.1528,0.6798 l -0.1013,0.6119 c -0.4592,0.2542 -1.6481,0.6962 -3.5854,1.3246 -1.3082,0.2892 -2.2086,0.4249 -2.7356,0.4249 -1.5116,0 -2.7691,-0.4077 -3.7717,-1.2404 -1.0189,-0.8318 -1.6652,-1.9872 -1.9537,-3.4489 -1.1382,1.4781 -2.5485,2.6506 -4.2308,3.5175 -1.6645,0.849 -3.3469,1.2739 -5.0456,1.2739 -2.4978,0 -4.4687,-0.5948 -5.9296,-1.7666 -1.4781,-1.1725 -2.2094,-2.8377 -2.2094,-4.9785 0,-0.3399 0.0686,-0.9854 0.2043,-1.9201 0.5776,-3.3975 2.3107,-5.8447 5.1991,-7.3399 1.6816,-0.8662 4.5536,-1.8009 8.6652,-2.752 2.2258,-0.527 3.9417,-1.1047 5.097,-1.7502 0.6962,-0.5263 1.104,-1.376 1.2232,-2.5314 0,-1.7502 -0.4927,-3.0926 -1.4446,-4.0609 -0.9682,-0.9683 -2.1914,-1.4438 -3.6695,-1.4438 -2.6335,0 -5.2499,1.0189 -7.8327,3.0583 -0.1021,0.0679 -0.2034,0.1528 -0.3056,0.2207 -0.0849,0.085 -0.2042,0.1699 -0.3056,0.2378 -0.1021,0.0849 -0.2042,0.1528 -0.3063,0.2377 z m 29.4782,19.5898 c 0.4077,-2.1579 0.8326,-4.2644 1.3253,-6.3202 0.3227,-1.6824 0.6626,-3.364 0.9854,-5.0121 0.3227,-1.648 0.6284,-3.3468 0.9511,-5.0798 0.2549,-1.4618 0.7991,-5.0978 1.6481,-10.9082 h 0.4927 c 1.0368,0.1357 2.5999,0.2043 4.7064,0.2043 1.1554,0 2.7528,-0.0686 4.7743,-0.2043 l -1.9366,8.5631 c -0.9518,3.8739 -1.8008,8.1554 -2.5485,12.8447 -0.6969,3.7888 -1.1218,7.2206 -1.3081,10.2961 -0.5777,-0.0342 -1.4618,-0.0849 -2.6335,-0.1699 -1.1897,-0.085 -2.073,-0.1357 -2.6678,-0.1357 -0.5434,0 -1.3424,0.0507 -2.3614,0.1357 -1.0369,0.085 -1.8523,0.1357 -2.4471,0.1699 z m 12.8446,-44.7521 c 1.3253,0 2.3957,0.4584 3.194,1.3589 0.7991,0.9004 1.1897,2.1922 1.1897,3.8403 -0.2549,1.4095 -0.9854,2.6163 -2.2258,3.6524 -1.2403,1.0368 -2.5656,1.5631 -3.993,1.5631 -1.2739,0 -2.2765,-0.4756 -3.0413,-1.3931 -0.764,-0.934 -1.1382,-2.2087 -1.1382,-3.8224 0.2721,-1.4103 0.9854,-2.6335 2.1408,-3.6704 1.1382,-1.0189 2.43,-1.5288 3.8738,-1.5288 z m 6.5245,40.7769 c 0.7811,3.6017 2.9733,5.4026 6.6086,5.4026 1.4782,0 2.7356,-0.3056 3.7889,-0.9176 1.0875,-0.8326 1.7673,-1.7837 2.0394,-2.837 0,-0.7312 -0.2214,-1.3938 -0.6463,-1.9715 -0.4241,-0.5777 -0.934,-1.0704 -1.5288,-1.4781 -0.612,-0.4078 -1.3082,-0.7812 -2.0901,-1.1383 -0.7983,-0.3563 -1.376,-0.6283 -1.7666,-0.8154 -0.3227,-0.17 -0.6626,-0.3399 -1.0025,-0.5263 -0.3399,-0.2042 -0.6798,-0.3913 -1.0361,-0.5777 -0.3399,-0.187 -0.6798,-0.3741 -1.0197,-0.5441 -1.1725,-0.5605 -2.0901,-1.4438 -2.7692,-2.6506 -0.6798,-1.1889 -1.0025,-2.4807 -1.0025,-3.8567 0,-0.2378 0.0678,-0.8155 0.2206,-1.7502 0.3399,-2.0215 1.1554,-3.8395 2.4129,-5.4704 1.2574,-1.631 2.9055,-2.8206 4.927,-3.5854 2.3108,-0.9004 4.2816,-1.3417 5.8954,-1.3417 3.7038,0 6.7286,1.019 9.0729,3.0584 -0.9176,1.7159 -1.7666,3.6524 -2.5656,5.8103 h -1.9366 c 0,-1.4781 -0.5098,-2.7527 -1.5459,-3.8567 -1.0197,-1.0875 -2.2772,-1.6309 -3.7553,-1.6309 -1.376,0 -2.5821,0.2885 -3.6189,0.9005 -1.0361,0.6112 -1.6652,1.5459 -1.8687,2.8541 0,1.2232 0.3906,2.1236 1.1725,2.7013 0.764,0.5605 1.9879,1.2403 3.6189,1.988 2.7691,1.121 4.8249,2.2428 6.1674,3.3982 1.3253,1.1382 1.9879,2.8206 1.9879,5.0627 0,0.2721 -0.0678,1.0197 -0.2213,2.2429 -0.6113,3.6189 -2.5992,6.4052 -5.9975,8.3596 -2.4292,1.4267 -5.2841,2.1408 -8.5459,2.1408 -3.3133,0 -6.2181,-0.9176 -8.6824,-2.7527 0.969,-2.7185 1.6481,-4.7914 2.0394,-6.2181 z"
         style="fill:#e30016;fill-rule:evenodd"
         id="path19" />
    </g>
  </g>
</svg>
